<svg xmlns="http://www.w3.org/2000/svg" width="104" height="116.888" viewBox="0 0 104 116.888"><path d="M62.528,3A45.473,45.473,0,0,0,17.072,46.249L4.6,62.678a3.36,3.36,0,0,0,2.727,5.26h9.741V87.419a12.943,12.943,0,0,0,12.988,12.988h6.494v19.481H82.01V89.432A45.4,45.4,0,0,0,62.528,3M88.893,45.664,76.165,49.041l9.351,9.416A5.832,5.832,0,1,1,77.269,66.7l-9.481-9.351L64.476,70.081A5.725,5.725,0,0,1,57.4,74.237a5.791,5.791,0,0,1-4.156-7.143L56.684,54.3,43.891,57.742A5.812,5.812,0,1,1,40.9,46.508L53.632,43.2l-9.351-9.481a5.832,5.832,0,0,1,8.247-8.247l9.416,9.351,3.377-12.728a5.72,5.72,0,0,1,6.948-4.156,5.908,5.908,0,0,1,4.286,7.208L73.113,37.872,85.841,34.43a5.908,5.908,0,0,1,7.208,4.286A5.72,5.72,0,0,1,88.893,45.664Z" transform="translate(-3.985 -3)" fill="#5a5a5a"/></svg>