<svg xmlns="http://www.w3.org/2000/svg" width="60" height="60" viewBox="0 0 60 60"><path d="M56.333,3A6.667,6.667,0,0,1,63,9.667V56.333A6.667,6.667,0,0,1,56.333,63H9.667A6.667,6.667,0,0,1,3,56.333V9.667A6.667,6.667,0,0,1,9.667,3H56.333M54.667,54.667V37A10.867,10.867,0,0,0,43.8,26.133a9.66,9.66,0,0,0-7.733,4.333v-3.7h-9.3v27.9h9.3V38.233a4.65,4.65,0,1,1,9.3,0V54.667h9.3M15.933,21.533a5.617,5.617,0,1,0-5.633-5.6,5.6,5.6,0,0,0,5.633,5.6m4.633,33.133v-27.9H11.333v27.9Z" transform="translate(-3 -3)" fill="#5a5a5a"/></svg>