<svg xmlns="http://www.w3.org/2000/svg" width="155.095" height="155.744" viewBox="0 0 155.095 155.744"><path d="M77.6,0,73.315.195,98.039,24.919l8.761-8.7a68.669,68.669,0,0,1,38.612,55.159h9.734A77.834,77.834,0,0,0,77.6,0m0,25.957A22.713,22.713,0,1,0,100.31,48.67,22.738,22.738,0,0,0,77.6,25.957M.05,84.362A77.834,77.834,0,0,0,77.6,155.744l4.283-.195L57.156,130.825l-8.761,8.7A68.574,68.574,0,0,1,9.784,84.362H.05m77.548,0c-25.114,0-45.425,10.188-45.425,22.713v9.734h90.851v-9.734C123.023,94.55,102.712,84.362,77.6,84.362Z" transform="translate(-0.05)" fill="#5a5a5a"/></svg>